<svg xmlns="http://www.w3.org/2000/svg" width="1080" height="1080" viewBox="0 0 1080 1080" version="1.1"><path d="M 319 251.691 C 318.175 251.942, 316.600 252.532, 315.500 253.003 C 314.400 253.475, 311.700 254.406, 309.500 255.072 C 304.403 256.615, 287.658 265.316, 283.598 268.531 C 276.659 274.024, 273.554 276.588, 271.807 278.266 C 268.849 281.106, 257.887 296.220, 258.407 296.740 C 258.668 297.001, 257.783 298.399, 256.441 299.847 C 255.098 301.295, 253.997 302.934, 253.994 303.490 C 253.990 304.045, 253.268 305.850, 252.388 307.500 C 250.758 310.558, 247.734 319.091, 246.363 324.500 C 245.945 326.150, 245.506 335.887, 245.386 346.137 C 245.099 370.795, 246.553 376.449, 258.722 398 C 263.567 406.581, 272.155 416.079, 281.250 422.917 C 284.413 425.295, 287 427.636, 287 428.120 C 287 428.604, 287.487 429, 288.083 429 C 288.678 429, 292.813 430.807, 297.271 433.015 C 301.729 435.223, 306.304 437.212, 307.438 437.435 C 308.572 437.659, 311.376 438.520, 313.670 439.348 C 319.216 441.352, 325.918 442.486, 338 443.466 C 341.575 443.756, 345.487 444.189, 346.694 444.428 C 347.901 444.668, 351.726 445.131, 355.194 445.459 C 363.406 446.234, 364.097 446.374, 366.684 447.798 C 367.886 448.459, 369.561 449, 370.408 449 C 371.886 449, 380.969 452.939, 382 454.028 C 382.275 454.318, 384.521 455.443, 386.992 456.528 C 392.109 458.774, 407.224 469.876, 410.988 474.152 C 417.905 482.010, 428.422 499.090, 429.574 504.337 C 429.953 506.061, 430.837 508.377, 431.540 509.485 C 432.756 511.405, 434.272 517.792, 435.577 526.500 C 436.694 533.951, 436.163 554.728, 434.746 559 C 434.473 559.825, 433.208 564.100, 431.936 568.500 C 428.741 579.551, 424.059 588.627, 416.294 598.825 C 409.012 608.388, 407.287 610.092, 398.500 616.402 C 392.667 620.591, 378 629.269, 378 628.532 C 378 628.330, 374.063 629.516, 369.250 631.168 C 364.438 632.820, 359.600 634.325, 358.500 634.511 C 354.377 635.210, 345.268 635.947, 338.500 636.129 C 334.650 636.232, 330.375 636.669, 329 637.099 C 327.625 637.530, 324.700 638.090, 322.500 638.345 C 312.222 639.536, 292.563 647.669, 284.660 654 C 265.710 669.178, 253.180 686.042, 248.622 702.500 C 248.469 703.050, 247.662 705.750, 246.828 708.500 C 244.121 717.424, 243.876 745.864, 246.421 755.750 C 246.739 756.988, 247.194 758.871, 247.430 759.935 C 247.667 760.999, 248.357 762.799, 248.965 763.935 C 249.573 765.071, 249.823 766, 249.521 766 C 249.219 766, 250.334 768.700, 252 772 C 253.666 775.300, 254.685 778.007, 254.264 778.015 C 253.844 778.024, 253.972 778.361, 254.548 778.765 C 255.124 779.169, 256.831 781.637, 258.340 784.250 C 259.849 786.862, 261.515 789, 262.042 789 C 262.569 789, 262.887 789.419, 262.750 789.931 C 262.288 791.654, 271.715 802.194, 277.727 806.676 C 279.802 808.223, 281.725 809.717, 282 809.996 C 282.275 810.275, 283.722 811.133, 285.216 811.902 C 286.710 812.672, 287.742 813.609, 287.510 813.984 C 287.278 814.359, 287.666 814.667, 288.372 814.667 C 289.078 814.667, 291.645 816.015, 294.078 817.662 C 300.513 822.021, 311.380 826.129, 321 827.841 C 327.496 828.997, 361.972 828.753, 363.939 827.538 C 364.686 827.076, 368.718 825.513, 372.899 824.066 C 389.052 818.472, 401.979 809.590, 414.287 795.627 C 417.470 792.017, 421.328 786.679, 422.860 783.766 C 424.392 780.853, 426.388 777.338, 427.294 775.954 C 429.983 771.851, 434.992 755.433, 436.074 747.176 C 436.627 742.954, 437.307 734.100, 437.584 727.500 C 438.233 712.078, 440.078 694.070, 442.502 679.500 C 443.625 672.749, 451.866 641.874, 452.886 640.594 C 453.366 639.992, 455.421 634.550, 457.453 628.500 C 461.355 616.886, 473.455 592.005, 478.193 585.856 C 479.737 583.852, 481 581.929, 481 581.582 C 481 579.177, 501.987 551.033, 514.431 536.751 C 525.839 523.659, 548.240 504.652, 568.057 491.251 C 586.018 479.105, 620.587 462.963, 642 456.723 C 645.025 455.842, 649.750 454.463, 652.500 453.659 C 658.713 451.843, 661.137 451.331, 680 447.851 C 686.325 446.684, 694.200 445.619, 697.500 445.484 C 721.240 444.515, 734.830 443.610, 736.815 442.867 C 738.088 442.390, 741.116 442, 743.544 442 C 751.221 442, 766.846 436.440, 777 430.094 C 792.863 420.181, 805.422 406.562, 813.305 390.725 C 820.228 376.816, 821.265 373.232, 822.644 358.447 C 824.016 343.731, 823.058 330.682, 819.819 320 C 818.735 316.425, 817.682 312.706, 817.479 311.736 C 816.166 305.463, 805.195 288.984, 796.126 279.660 C 783.547 266.728, 768.968 257.955, 753.189 253.824 C 745.544 251.822, 742.217 251.559, 725.500 251.630 L 706.500 251.711 696 255.489 C 690.225 257.567, 684.932 259.716, 684.239 260.265 C 682.731 261.459, 677.783 264.299, 673.114 266.651 C 664.942 270.768, 642.667 295.596, 642.667 300.588 C 642.667 301.365, 642.347 302, 641.956 302 C 640.306 302, 633.588 321.894, 632.501 330 C 632.317 331.375, 631.899 334.412, 631.573 336.749 C 630.339 345.585, 629.868 349.665, 629.467 355 C 628.941 362.012, 628.358 365.681, 627.119 369.768 C 626.575 371.566, 626.100 373.254, 626.065 373.518 C 626.029 373.783, 625.966 374.113, 625.923 374.250 C 625.881 374.387, 625.709 375.202, 625.540 376.060 C 625.171 377.933, 620.374 388.885, 618.995 391 C 618.458 391.825, 616.924 394.525, 615.588 397 C 614.251 399.475, 612.457 402.400, 611.601 403.500 C 610.744 404.600, 608.274 407.799, 606.110 410.609 C 596.210 423.467, 567.562 439.399, 550.569 441.497 C 547.858 441.831, 545.207 442.372, 544.678 442.699 C 543.052 443.704, 522.605 443.180, 519.653 442.058 C 518.122 441.476, 515.809 441, 514.513 441 C 511.657 441, 495.054 435.454, 493.622 434.022 C 493.060 433.460, 491.845 433, 490.922 433 C 490 433, 488.663 432.299, 487.952 431.442 C 487.241 430.585, 485.273 429.301, 483.580 428.587 C 481.886 427.874, 478.959 425.987, 477.074 424.395 C 470.241 418.620, 463.484 412.476, 462.785 411.401 C 462.391 410.797, 460.345 408.215, 458.237 405.663 C 453.861 400.369, 446.821 388.158, 443.962 380.904 C 442.896 378.199, 441.320 372.727, 440.460 368.743 C 439.600 364.759, 438.749 360.825, 438.569 360 C 438.390 359.175, 437.920 353.550, 437.526 347.500 C 436.316 328.917, 432.298 313.921, 424.662 299.489 C 420.843 292.269, 414.536 284.524, 405 275.340 C 401.975 272.427, 398.741 269.309, 397.813 268.413 C 395.550 266.226, 373.211 255, 371.123 255 C 370.214 255, 367.860 254.137, 365.892 253.082 C 362.685 251.363, 360.147 251.168, 341.407 251.201 C 329.908 251.220, 319.825 251.441, 319 251.691 M 329.500 300.488 C 327.300 301.303, 324.647 301.977, 323.604 301.985 C 320.861 302.007, 311.653 308.390, 305.524 314.519 C 294.571 325.472, 290.719 341.028, 294.505 359.022 C 296.389 367.980, 300.828 374.876, 309.820 382.817 C 319.725 391.564, 323.988 393.183, 338.630 393.757 C 352.652 394.308, 357.748 392.962, 367.994 386.004 C 381.660 376.724, 388.192 362.249, 387.625 342.500 C 387.429 335.654, 386.871 333.388, 383.759 326.792 C 377.837 314.238, 365.244 303.185, 355 301.549 C 354.725 301.505, 353.845 301.055, 353.044 300.549 C 350.445 298.904, 333.890 298.862, 329.500 300.488 M 715.111 300.595 C 713.274 301.368, 710.973 302, 709.999 302 C 707.536 302, 696.560 309.494, 691.861 314.384 C 689.715 316.618, 686.102 322.283, 683.832 326.973 C 680.317 334.238, 679.636 336.698, 679.236 343.591 C 678.454 357.056, 683.128 369.880, 692.157 379.040 C 703.670 390.720, 711.402 393.962, 727.802 393.985 C 737.839 394, 738.311 393.897, 746.155 389.983 C 755.151 385.493, 762.442 379.961, 764.479 376.077 C 765.222 374.660, 766.679 372.600, 767.716 371.500 C 770.512 368.534, 771.762 365.206, 773.725 355.500 C 774.825 350.064, 774.254 335, 772.949 335 C 772.610 335, 772.292 334.438, 772.241 333.750 C 772.006 330.571, 770.787 326.589, 769.304 324.160 C 765.362 317.705, 762.431 313.451, 761.503 312.838 C 760.951 312.473, 759.521 311.325, 758.325 310.286 C 757.129 309.246, 754.429 307.519, 752.325 306.448 C 750.221 305.377, 748.242 304.152, 747.927 303.727 C 747.611 303.301, 746.486 302.779, 745.427 302.566 C 744.367 302.354, 741.475 301.497, 739 300.661 C 733.319 298.745, 719.603 298.707, 715.111 300.595 M 643 516.943 C 640.525 517.278, 637.965 517.887, 637.312 518.297 C 636.658 518.706, 634.183 519.307, 631.812 519.632 C 629.440 519.956, 625.533 520.883, 623.129 521.692 C 620.725 522.500, 617.905 523.326, 616.862 523.527 C 614.032 524.072, 595.647 532.700, 586 538.011 C 574.913 544.114, 557.194 558.935, 549.519 568.525 C 547.329 571.261, 543.391 575.899, 540.769 578.831 C 538.146 581.762, 536 584.745, 536 585.458 C 536 586.171, 535.290 587.344, 534.422 588.065 C 531.890 590.166, 523.937 605.335, 520.299 615 C 517.919 621.326, 514.415 632.465, 513.538 636.500 C 513.298 637.600, 512.814 639.625, 512.462 641 C 509.021 654.423, 508.483 686.432, 511.505 698 C 511.864 699.375, 512.369 702.075, 512.627 704 C 512.885 705.925, 513.763 709.800, 514.579 712.612 C 515.394 715.424, 516.230 718.574, 516.436 719.612 C 517.244 723.689, 517.530 724.522, 518.316 725.100 C 518.766 725.430, 519.236 726.404, 519.362 727.264 C 519.489 728.123, 520.321 730.328, 521.213 732.163 C 527.322 744.737, 531.499 752.831, 533.584 756.134 C 534.913 758.238, 536 760.210, 536 760.515 C 536 763.074, 558.117 787.830, 565.276 793.283 C 566.877 794.502, 570.507 797.342, 573.343 799.594 C 576.179 801.846, 582.325 805.802, 587 808.385 C 591.675 810.968, 596.175 813.516, 597 814.048 C 599.120 815.414, 604.796 817.912, 607 818.449 C 607.275 818.516, 608.625 819.214, 610 820 C 611.375 820.786, 612.725 821.462, 613 821.502 C 613.995 821.647, 625.567 825.230, 628.253 826.225 C 637.775 829.753, 693.544 830.414, 699.888 827.074 C 700.775 826.607, 703.419 825.962, 705.765 825.640 C 708.110 825.318, 710.962 824.555, 712.102 823.945 C 713.243 823.335, 715.373 822.636, 716.838 822.392 C 718.302 822.148, 720.850 821.312, 722.500 820.534 C 724.150 819.757, 729.325 817.332, 734 815.146 C 752.146 806.660, 763.808 798.023, 781.626 779.872 C 788.846 772.517, 795.084 765.375, 795.489 764 C 795.893 762.625, 797.267 760.375, 798.540 759 C 804.690 752.359, 819.670 716.296, 821.385 704 C 824.027 685.068, 824.050 662.785, 821.447 642.603 C 820.703 636.836, 815.159 619.489, 811.345 611 C 809.986 607.975, 808.192 603.925, 807.359 602 C 806.525 600.075, 803.065 594, 799.671 588.500 C 794.810 580.624, 790.315 575.285, 778.500 563.361 C 764.849 549.584, 759.935 545.414, 752.149 540.998 C 750.692 540.172, 748.150 538.575, 746.500 537.449 C 744.850 536.324, 742.375 534.865, 741 534.209 C 739.625 533.552, 737.825 532.631, 737 532.163 C 727.619 526.835, 708.744 520.535, 693.598 517.675 C 685.916 516.224, 651.950 515.733, 643 516.943 M 662 565.280 C 661.725 565.534, 658.350 566.012, 654.500 566.342 C 645.874 567.082, 640.844 568.014, 639.399 569.140 C 638.793 569.612, 636.993 570.087, 635.399 570.197 C 633.804 570.307, 631.600 570.927, 630.500 571.576 C 629.400 572.225, 627.092 573.014, 625.371 573.329 C 617.193 574.826, 591.047 593.861, 583.847 603.560 C 582.006 606.040, 579.254 609.701, 577.732 611.695 C 572.161 618.992, 564.297 636.942, 561.168 649.500 C 559.469 656.322, 558.873 672.984, 559.911 684.645 C 560.915 695.916, 564.919 710.783, 569.299 719.500 C 573.211 727.286, 581.788 739.588, 587.972 746.283 C 593.851 752.647, 604.933 762, 606.595 762 C 607.006 762, 608.134 762.717, 609.102 763.593 C 612.038 766.249, 622.767 771.877, 626.130 772.525 C 627.087 772.709, 628.687 773.291, 629.685 773.819 C 632.870 775.500, 646.278 778.815, 653 779.583 C 668.831 781.390, 684.666 780.094, 698.500 775.857 C 708.334 772.846, 712.615 771.041, 719.500 767.001 C 731.235 760.117, 749 745.574, 749 742.852 C 749 742.396, 749.788 741.080, 750.750 739.927 C 751.712 738.775, 753.473 736.676, 754.663 735.263 C 757.070 732.404, 768.949 709.253, 769.497 706.350 C 769.690 705.333, 769.916 704.500, 770 704.500 C 770.186 704.500, 770.710 702.420, 771.447 698.750 C 771.751 697.238, 772.251 694.763, 772.557 693.250 C 774.977 681.301, 775.011 663.815, 772.633 654.040 C 772.303 652.687, 771.794 649.969, 771.500 648 C 770.577 641.809, 770.172 640.190, 769 638 C 768.373 636.829, 767.709 635.112, 767.525 634.185 C 766.792 630.500, 766.476 629.479, 765.921 629 C 765.603 628.725, 764.028 626.025, 762.421 623 C 758.594 615.795, 755.801 611.639, 751.444 606.669 C 749.481 604.429, 747.185 601.429, 746.343 600.003 C 745.500 598.576, 743.186 596.304, 741.202 594.954 C 739.218 593.604, 735.773 590.769, 733.547 588.652 C 731.321 586.536, 727.813 583.940, 725.750 582.882 C 723.688 581.825, 721.996 580.631, 721.992 580.230 C 721.988 579.828, 720.975 579.031, 719.742 578.458 C 718.509 577.886, 715.700 576.489, 713.500 575.356 C 708.076 572.562, 702.994 570.824, 696.070 569.397 C 694.734 569.121, 693.273 568.669, 692.824 568.391 C 691.679 567.684, 688.502 567.126, 682.584 566.593 C 665.667 565.070, 662.450 564.865, 662 565.280 M 326.233 687.534 C 323.336 688.187, 320.186 689.366, 319.233 690.154 C 318.280 690.942, 316.190 692.242, 314.589 693.043 C 309.630 695.525, 303.276 702.510, 299.936 709.149 C 298.179 712.642, 296.395 715.725, 295.971 716 C 294.886 716.704, 293.940 723.139, 293.547 732.500 C 293.136 742.265, 295.581 750.635, 301.441 759.523 C 311.121 774.205, 321.694 779.792, 341 780.427 C 344.025 780.527, 348.300 780.209, 350.500 779.721 C 352.700 779.232, 355.235 778.681, 356.133 778.496 C 362.571 777.170, 373.868 768.672, 379.631 760.821 C 385.582 752.715, 387.742 745.114, 387.742 732.282 C 387.742 722.224, 387.507 720.878, 384.711 714.939 C 383.044 711.397, 381.639 708.223, 381.590 707.884 C 381.540 707.544, 379.025 704.480, 376 701.074 C 370.661 695.063, 360.924 689.001, 354 687.378 C 349.209 686.255, 331.462 686.354, 326.233 687.534" stroke="none" fill="#ff0404" fill-rule="evenodd"/><path d="" stroke="none" fill="#fc0404" fill-rule="evenodd"/></svg>